<svg version="1.1" xmlns="http://www.w3.org/2000/svg" viewBox="0 0 87 115" width="87" height="115">
  <!-- svg-source:excalidraw -->
  
  <defs>

  </defs>
  <g transform="translate(10 88) rotate(0 33.5 -30.5)" stroke="none"><path fill="#1d1d1d" d="M -7.61,-4.40 Q -7.61,-4.40 -4.46,-9.87 -1.32,-15.35 3.79,-24.17 8.91,-33.00 13.21,-41.24 17.52,-49.49 21.47,-56.84 25.42,-64.19 26.86,-68.45 28.30,-72.70 29.69,-76.37 31.08,-80.03 31.62,-80.91 32.15,-81.80 32.89,-82.52 33.62,-83.25 34.50,-83.79 35.39,-84.32 36.38,-84.62 37.36,-84.93 38.40,-84.99 39.43,-85.05 40.44,-84.86 41.46,-84.67 42.40,-84.24 43.34,-83.82 44.15,-83.18 44.97,-82.54 45.60,-81.72 46.24,-80.91 46.66,-79.96 47.08,-79.02 47.26,-78.00 47.45,-76.99 47.38,-75.96 47.32,-74.92 47.01,-73.94 46.70,-72.95 49.18,-62.98 51.67,-53.01 52.87,-44.22 54.07,-35.43 56.38,-26.83 58.68,-18.22 61.79,-10.38 64.90,-2.53 67.47,1.68 70.05,5.91 72.38,9.75 74.71,13.59 75.05,14.91 75.39,16.23 75.30,17.59 75.20,18.95 74.67,20.21 74.14,21.47 73.24,22.49 72.34,23.51 71.16,24.20 69.98,24.88 68.64,25.15 67.31,25.42 65.95,25.25 64.60,25.08 63.37,24.49 62.14,23.89 61.17,22.94 60.20,21.98 59.58,20.77 58.96,19.55 58.76,18.20 58.56,16.85 58.81,15.51 59.05,14.17 59.71,12.97 60.37,11.78 61.38,10.86 62.38,9.94 63.63,9.38 64.88,8.83 66.24,8.71 67.60,8.58 68.92,8.90 70.25,9.22 71.41,9.94 72.56,10.66 73.43,11.72 74.29,12.77 74.78,14.05 75.26,15.33 75.31,16.69 75.36,18.05 74.97,19.36 74.59,20.67 73.80,21.78 73.02,22.90 71.92,23.71 70.81,24.51 69.51,24.93 68.21,25.34 66.85,25.31 65.49,25.29 64.20,24.83 62.92,24.38 61.84,23.53 60.77,22.69 60.03,21.54 59.28,20.40 59.28,20.40 59.28,20.40 58.17,16.45 57.06,12.50 54.97,7.54 52.89,2.57 49.09,-5.78 45.29,-14.14 42.17,-23.38 39.05,-32.62 36.97,-41.46 34.88,-50.29 33.74,-60.69 32.60,-71.09 31.84,-75.56 31.08,-80.03 31.62,-80.91 32.15,-81.79 32.89,-82.52 33.62,-83.25 34.50,-83.78 35.39,-84.32 36.38,-84.62 37.36,-84.93 38.40,-84.99 39.43,-85.05 40.44,-84.86 41.46,-84.67 42.40,-84.24 43.34,-83.82 44.15,-83.18 44.97,-82.54 45.60,-81.72 46.24,-80.91 46.66,-79.97 47.08,-79.02 47.26,-78.00 47.45,-76.99 47.38,-75.96 47.32,-74.93 47.01,-73.94 46.70,-72.95 44.42,-69.80 42.14,-66.64 39.84,-62.34 37.53,-58.04 34.01,-50.68 30.50,-43.32 26.70,-34.52 22.91,-25.72 18.44,-16.11 13.97,-6.49 10.79,-1.04 7.61,4.40 6.97,5.25 6.33,6.10 5.51,6.77 4.69,7.44 3.73,7.89 2.77,8.34 1.73,8.55 0.69,8.76 -0.36,8.72 -1.42,8.68 -2.43,8.38 -3.45,8.08 -4.37,7.55 -5.29,7.02 -6.05,6.29 -6.82,5.55 -7.38,4.65 -7.95,3.76 -8.28,2.75 -8.62,1.74 -8.70,0.69 -8.78,-0.36 -8.61,-1.41 -8.44,-2.45 -8.02,-3.43 -7.61,-4.40 -7.61,-4.40 L -7.61,-4.40 Z"></path></g></svg>